# Blender v2.78 (sub 0) OBJ File: ''
# www.blender.org
mtllib castle.mtl
o Cube.006_Cube.029
v 6.672196 0.049326 5.882803
v 6.672196 1.243798 5.882803
v 6.672196 1.243798 -2.173217
v 6.672196 0.049326 -2.173217
v 7.672196 1.243798 -2.173217
v 7.672196 0.049326 -2.173217
v 7.672196 1.243798 5.882803
v 7.672196 0.049326 5.882803
vn -1.0000 0.0000 0.0000
vn 0.0000 0.0000 -1.0000
vn 1.0000 0.0000 0.0000
vn 0.0000 0.0000 1.0000
vn 0.0000 -1.0000 -0.0000
vn 0.0000 1.0000 0.0000
usemtl None
s 1
f 1//1 2//1 3//1 4//1
f 4//2 3//2 5//2 6//2
f 6//3 5//3 7//3 8//3
f 8//4 7//4 2//4 1//4
f 4//5 6//5 8//5 1//5
f 5//6 3//6 2//6 7//6
o Cube.004_Cube.027
v -2.596094 -0.026071 7.810619
v -2.596094 3.973929 7.810619
v -2.596094 3.973929 5.810619
v -2.596094 -0.026071 5.810619
v -1.796094 3.973929 5.810619
v -1.796094 -0.026071 5.810619
v -1.796094 3.973929 7.810619
v -1.796094 -0.026071 7.810619
vn -1.0000 0.0000 0.0000
vn 0.0000 0.0000 -1.0000
vn 1.0000 0.0000 0.0000
vn 0.0000 0.0000 1.0000
vn 0.0000 -1.0000 -0.0000
vn 0.0000 1.0000 0.0000
usemtl None
s 1
f 9//7 10//7 11//7 12//7
f 12//8 11//8 13//8 14//8
f 14//9 13//9 15//9 16//9
f 16//10 15//10 10//10 9//10
f 12//11 14//11 16//11 9//11
f 13//12 11//12 10//12 15//12
o Cube.007_Cube.030
v -7.770147 0.049326 5.882803
v -7.770147 1.243798 5.882803
v -7.770147 1.243798 -2.173217
v -7.770147 0.049326 -2.173217
v -6.770147 1.243798 -2.173217
v -6.770147 0.049326 -2.173217
v -6.770147 1.243798 5.882803
v -6.770147 0.049326 5.882803
vn -1.0000 0.0000 0.0000
vn 0.0000 0.0000 -1.0000
vn 1.0000 0.0000 0.0000
vn 0.0000 0.0000 1.0000
vn 0.0000 -1.0000 -0.0000
vn 0.0000 1.0000 0.0000
usemtl None
s 1
f 17//13 18//13 19//13 20//13
f 20//14 19//14 21//14 22//14
f 22//15 21//15 23//15 24//15
f 24//16 23//16 18//16 17//16
f 20//17 22//17 24//17 17//17
f 21//18 19//18 18//18 23//18
o Cube.000_Cube.023
v 5.747830 0.016663 7.942447
v 5.747830 4.016663 7.942447
v 5.747830 4.016663 5.942447
v 5.747830 0.016663 5.942447
v 7.747830 4.016663 5.942447
v 7.747830 0.016663 5.942447
v 7.747830 4.016663 7.942447
v 7.747830 0.016663 7.942447
v 6.869390 3.174806 7.866375
v 7.930950 2.765235 7.024008
v 7.173907 3.691117 7.314387
vt 0.4030 0.3084
vt 0.3800 0.7387
vt 0.5275 0.7092
vt 0.5290 0.3739
vt 0.7056 0.7391
vt 0.6825 0.3211
vt 0.5786 0.7932
vt 0.5713 0.2162
vn -1.0000 0.0000 0.0000
vn 0.0000 0.0000 -1.0000
vn 1.0000 0.0000 0.0000
vn 0.0000 0.0000 1.0000
vn 0.0000 -1.0000 -0.0000
vn 0.0000 1.0000 0.0000
usemtl None
s 1
f 25/1/19 26/2/19 27/3/19 28/4/19
f 28/4/20 27/3/20 29/5/20 30/6/20
f 30/6/21 29/5/21 31/7/21 32/8/21
f 32/8/22 31/7/22 26/2/22 25/1/22
f 28/4/23 30/6/23 32/8/23 25/1/23
f 29/5/24 27/3/24 26/2/24 31/7/24
l 33 34
l 34 35
o Cube.008_Cube.031
v -6.709424 0.079037 -2.195801
v -6.709424 1.118995 -2.195801
v -6.709424 1.118995 -0.570813
v -6.709424 0.079037 -0.570813
v 6.514050 1.118995 -0.570813
v 6.514050 0.079037 -0.570813
v 6.514050 1.118995 -2.195801
v 6.514050 0.079037 -2.195801
vn 1.0000 -0.0000 0.0000
vn 0.0000 0.0000 -1.0000
vn -1.0000 0.0000 0.0000
vn 0.0000 0.0000 1.0000
vn 0.0000 1.0000 0.0000
vn 0.0000 -1.0000 -0.0000
usemtl None
s 1
f 36//25 37//25 38//25 39//25
f 39//26 38//26 40//26 41//26
f 41//27 40//27 42//27 43//27
f 43//28 42//28 37//28 36//28
f 39//29 41//29 43//29 36//29
f 40//30 38//30 37//30 42//30
o Cube.002_Cube.025
v -5.722864 -0.053270 7.946818
v -5.722864 1.946730 7.946818
v -5.722864 1.946730 5.946818
v -5.722864 -0.053270 5.946818
v -2.722864 1.946730 5.946818
v -2.722864 -0.053270 5.946818
v -2.722864 1.946730 7.946818
v -2.722864 -0.053270 7.946818
vn -1.0000 0.0000 0.0000
vn 0.0000 0.0000 -1.0000
vn 1.0000 0.0000 0.0000
vn 0.0000 0.0000 1.0000
vn 0.0000 -1.0000 -0.0000
vn 0.0000 1.0000 0.0000
usemtl None
s 1
f 44//31 45//31 46//31 47//31
f 47//32 46//32 48//32 49//32
f 49//33 48//33 50//33 51//33
f 51//34 50//34 45//34 44//34
f 47//35 49//35 51//35 44//35
f 48//36 46//36 45//36 50//36
o Cube_Cube.024
v 2.678745 -0.053270 7.946818
v 2.678745 1.946730 7.946818
v 2.678745 1.946730 5.946818
v 2.678745 -0.053270 5.946818
v 5.678745 1.946730 5.946818
v 5.678745 -0.053270 5.946818
v 5.678745 1.946730 7.946818
v 5.678745 -0.053270 7.946818
vn -1.0000 0.0000 0.0000
vn 0.0000 0.0000 -1.0000
vn 1.0000 0.0000 0.0000
vn 0.0000 0.0000 1.0000
vn 0.0000 -1.0000 -0.0000
vn 0.0000 1.0000 0.0000
usemtl None
s 1
f 52//37 53//37 54//37 55//37
f 55//38 54//38 56//38 57//38
f 57//39 56//39 58//39 59//39
f 59//40 58//40 53//40 52//40
f 55//41 57//41 59//41 52//41
f 56//42 54//42 53//42 58//42
o Cube.001_Cube.022
v -7.833054 0.016663 7.942447
v -7.833054 4.016663 7.942447
v -7.833054 4.016663 5.942447
v -7.833054 0.016663 5.942447
v -5.833054 4.016663 5.942447
v -5.833054 0.016663 5.942447
v -5.833054 4.016663 7.942447
v -5.833054 0.016663 7.942447
vn -1.0000 0.0000 0.0000
vn 0.0000 0.0000 -1.0000
vn 1.0000 0.0000 0.0000
vn 0.0000 0.0000 1.0000
vn 0.0000 -1.0000 -0.0000
vn 0.0000 1.0000 0.0000
usemtl None
s 1
f 60//43 61//43 62//43 63//43
f 63//44 62//44 64//44 65//44
f 65//45 64//45 66//45 67//45
f 67//46 66//46 61//46 60//46
f 63//47 65//47 67//47 60//47
f 64//48 62//48 61//48 66//48
o Cube.003_Cube.026
v 1.809525 -0.026071 7.810619
v 1.809525 3.973929 7.810619
v 1.809525 3.973929 5.810619
v 1.809525 -0.026071 5.810619
v 2.609525 3.973929 5.810619
v 2.609525 -0.026071 5.810619
v 2.609525 3.973929 7.810619
v 2.609525 -0.026071 7.810619
vn -1.0000 0.0000 0.0000
vn 0.0000 0.0000 -1.0000
vn 1.0000 0.0000 0.0000
vn 0.0000 0.0000 1.0000
vn 0.0000 -1.0000 -0.0000
vn 0.0000 1.0000 0.0000
usemtl None
s 1
f 68//49 69//49 70//49 71//49
f 71//50 70//50 72//50 73//50
f 73//51 72//51 74//51 75//51
f 75//52 74//52 69//52 68//52
f 71//53 73//53 75//53 68//53
f 72//54 70//54 69//54 74//54
o Cube.005_Cube.028
v -2.605506 4.008217 7.807585
v -2.605506 4.808218 7.807585
v -2.605506 4.808218 5.807585
v -2.605506 4.008217 5.807585
v 2.623136 4.808218 5.807585
v 2.623136 4.008217 5.807585
v 2.623136 4.808218 7.807585
v 2.623136 4.008217 7.807585
vn -1.0000 0.0000 0.0000
vn 0.0000 0.0000 -1.0000
vn 1.0000 0.0000 0.0000
vn 0.0000 0.0000 1.0000
vn 0.0000 -1.0000 0.0000
vn 0.0000 1.0000 0.0000
usemtl None
s 1
f 76//55 77//55 78//55 79//55
f 79//56 78//56 80//56 81//56
f 81//57 80//57 82//57 83//57
f 83//58 82//58 77//58 76//58
f 79//59 81//59 83//59 76//59
f 80//60 78//60 77//60 82//60
